{"title":"Nymphomaniac Volume I and II Unrated Webrip x264 AC3-TiTAN","uid":9711099,"size":2031019028,"categoryP":"video","categoryS":"movies","magnet":"?xt=urn:btih:4944745dc4cdd7d9dc2a684ff9d4ae40a4ce3bb4&amp;dn=Nymphomaniac+Volume+I+and+II+Unrated+Webrip+x264+AC3-TiTAN&amp;tr=udp%3A%2F%2Ftracker.openbittorrent.com%3A80&amp;tr=udp%3A%2F%2Fopen.demonii.com%3A1337&amp;tr=udp%3A%2F%2Ftracker.coppersurfer.tk%3A6969&amp;tr=udp%3A%2F%2Fexodus.desync.com%3A6969","seeders":11,"leechers":0,"uploader":"HeroMaster","files":-1,"time":1394113363,"description":":::::::: TiTAN PRESENTS ::::::::\n\n\n:::: Nymphomaniac Volume I and II Unrated Webrip x264 AC3-TiTAN ::::\n\n\n::Information::\n\n\nNymphomaniac Volume I and II Unrated\n\n\nSource: VOD Cheers Bro\n\n\nNote: OK i put the unrated tag on this just because it is full on porno in allot \nof the film.. And there is just some real racy parts.. so be warned not for the kiddies.. for u adults Enjoy ;)\n\n\nGeneral\n\nFormat : Matroska\nFormat version : Version 2\nFile size : 915 MiB\nDuration : 1h 50mn\nOverall bit rate mode : Variable\nOverall bit rate : 1 157 Kbps\nEncoded date : UTC 2014-03-05 19:48:07\nWriting application : mkvmerge v6.5.0 ('Isn't she lovely') built on Oct 20 2013 12:50:05\nWriting library : libebml v1.3.0 + libmatroska v1.4.1\n\nVideo\nID : 1\nFormat : AVC\nFormat/Info : Advanced Video Codec\nFormat profile : &lt;a class=&quot;__cf_email__&quot; href=&quot;/cdn-cgi/l/email-protection&quot; data-cfemail=&quot;763e1f111e363a425847&quot;&gt;[email&amp;#160;protected]&lt;/a&gt;&lt;script cf-hash='f9e31' type=&quot;text/javascript&quot;&gt;\n/* &lt;![CDATA[ */!function(){try{var t=&quot;currentScript&quot;in document?document.currentScript:function(){for(var t=document.getElementsByTagName(&quot;script&quot;),e=t.length;e--;)if(t[e].getAttribute(&quot;cf-hash&quot;))return t[e]}();if(t&amp;&amp;t.previousSibling){var e,r,n,i,c=t.previousSibling,a=c.getAttribute(&quot;data-cfemail&quot;);if(a){for(e=&quot;&quot;,r=parseInt(a.substr(0,2),16),n=2;a.length-n;n+=2)i=parseInt(a.substr(n,2),16)^r,e+=String.fromCharCode(i);e=document.createTextNode(e),c.parentNode.replaceChild(e,c)}}}catch(u){}}();/* ]]&gt; */&lt;/script&gt;\nFormat settings, CABAC : Yes\nFormat settings, ReFrames : 3 frames\nCodec ID : V_MPEG4/ISO/AVC\nDuration : 1h 50mn\nBit rate mode : Variable\nBit rate : 942 Kbps\nMaximum bit rate : 40.0 Mbps\nWidth : 720 pixels\nHeight : 304 pixels\nDisplay aspect ratio : 2.35:1\nFrame rate mode : Constant\nFrame rate : 25.000 fps\nColor space : YUV\nChroma subsampling : 4:2:0\nBit depth : 8 bits\nScan type : Progressive\nBits/(Pixel*Frame) : 0.172\nStream size : 745 MiB (81%)\nWriting library : x264 core 138 r2358 9e941d1\nDefault : Yes\nForced : No\nColor primaries : BT.709\nTransfer characteristics : BT.709\nMatrix coefficients : BT.709\n\nAudio\nID : 2\nFormat : AC-3\nFormat/Info : Audio Coding 3\nMode extension : CM (complete main)\nFormat settings, Endianness : Big\nCodec ID : A_AC3\nDuration : 1h 50mn\nBit rate mode : Constant\nBit rate : 192 Kbps\nChannel(s) : 2 channels\nChannel positions : Front: L R\nSampling rate : 44.1 KHz\nBit depth : 16 bits\nCompression mode : Lossy\nStream size : 152 MiB (17%)\nDefault : Yes\nForced : No\n\n\n::IMDB::\n\n &lt;a href=&quot;\nhttp://www.imdb.com/title/tt1937390/&quot; rel=&quot;nofollow&quot; target=&quot;_NEW&quot;&gt;\nhttp://www.imdb.com/title/tt1937390/&lt;/a&gt;\n\n\n::Poster::\n\n &lt;a href=&quot;\nhttp://i.imgur.com/uAOt6Ha.jpg&quot; rel=&quot;nofollow&quot; target=&quot;_NEW&quot;&gt;\nhttp://i.imgur.com/uAOt6Ha.jpg&lt;/a&gt;\n\n\n::Screenshots::\n\n &lt;a href=&quot;\nhttp://i.imgur.com/AaflGDZ.png&quot; rel=&quot;nofollow&quot; target=&quot;_NEW&quot;&gt;\nhttp://i.imgur.com/AaflGDZ.png&lt;/a&gt;\n\n &lt;a href=&quot;\nhttp://i.imgur.com/kgPEkX8.png&quot; rel=&quot;nofollow&quot; target=&quot;_NEW&quot;&gt;\nhttp://i.imgur.com/kgPEkX8.png&lt;/a&gt;\n\n &lt;a href=&quot;\nhttp://i.imgur.com/uTHiPwp.png&quot; rel=&quot;nofollow&quot; target=&quot;_NEW&quot;&gt;\nhttp://i.imgur.com/uTHiPwp.png&lt;/a&gt;\n\n\nSEED AND ENJOY!","torrent":{"xt":"urn:btih:4944745dc4cdd7d9dc2a684ff9d4ae40a4ce3bb4","amp;dn":"Nymphomaniac+Volume+I+and+II+Unrated+Webrip+x264+AC3-TiTAN","amp;tr":["udp%3A%2F%2Ftracker.openbittorrent.com%3A80","udp%3A%2F%2Fopen.demonii.com%3A1337","udp%3A%2F%2Ftracker.coppersurfer.tk%3A6969","udp%3A%2F%2Fexodus.desync.com%3A6969"],"infoHash":"4944745dc4cdd7d9dc2a684ff9d4ae40a4ce3bb4","infoHashBuffer":{"type":"Buffer","data":[73,68,116,93,196,205,215,217,220,42,104,79,249,212,174,64,164,206,59,180]},"announce":[],"urlList":[]}}